<svg width="881" height="137" viewBox="0 0 881 137" fill="none" xmlns="http://www.w3.org/2000/svg">
<path d="M630.423 58.4894V52.1905C632.728 53.5403 635.451 54.4401 638.804 54.4401C641.946 54.4401 643.413 53.5403 643.413 51.9656C643.413 50.3909 642.365 49.716 637.756 48.5912C632.518 47.2414 630.423 44.9919 630.423 40.4927C630.423 35.0937 634.194 32.1692 640.48 32.1692C643.832 32.1692 646.137 32.6191 648.441 33.519V39.1429C645.927 38.2431 643.413 37.7932 641.108 37.7932C637.966 37.7932 636.499 38.2431 636.499 39.8178C636.499 41.1675 637.337 41.6175 641.318 42.5173C647.394 44.092 649.908 46.1166 649.908 51.0657C649.908 56.6897 646.137 59.8391 639.013 59.8391C635.451 60.0641 632.518 59.3893 630.423 58.4894Z" fill="#010001"/>
<path d="M685.106 53.9901V59.1641H667.716V33.0688H684.896V38.4678H674.002V43.192H684.058V48.591H674.002V53.9901H685.106Z" fill="#010001"/>
<path d="M723.866 44.317V58.2644C721.351 59.1643 718.209 59.8391 714.647 59.8391C706.476 59.8391 702.076 54.6651 702.076 46.1167C702.076 37.7932 706.476 32.1692 715.694 32.1692C718.418 32.1692 720.304 32.6191 722.609 33.294V39.1429C720.304 38.2431 718.418 37.7932 715.694 37.7932C710.666 37.7932 708.362 40.9426 708.362 45.8917C708.362 50.8408 710.457 53.9902 715.276 53.9902C716.114 53.9902 717.161 53.9902 717.999 53.7653V49.4911H713.809V44.092H723.866V44.317Z" fill="#010001"/>
<path d="M748.378 33.0691V48.5912C748.378 52.4155 749.636 54.4402 752.569 54.4402C755.711 54.4402 756.759 52.1906 756.759 48.5912V33.0691H763.044V48.1413C763.044 55.565 759.902 60.0641 752.359 60.0641C744.817 60.0641 741.884 55.7899 741.884 48.1413V32.8441H748.378V33.0691Z" fill="#010001"/>
<path d="M791.957 45.4418C794.471 45.4418 795.938 44.317 795.938 42.0674C795.938 39.8178 794.681 38.6931 791.957 38.6931H788.605V45.4418H791.957ZM803.48 59.1643H796.357L793.424 52.8655C792.795 51.7407 792.167 50.8408 790.491 50.8408H788.605V59.1643H782.32V32.8441H792.167C798.452 32.8441 802.223 35.7686 802.223 41.8425C802.223 45.4418 800.547 47.9164 798.033 49.4911C798.871 49.941 799.29 50.8409 799.709 51.7407L803.48 59.1643Z" fill="#010001"/>
<path d="M825.898 46.1163C825.898 51.2904 828.202 54.2148 831.974 54.2148C835.745 54.2148 838.05 51.2904 838.05 46.1163C838.05 40.9422 835.745 38.0177 831.974 38.0177C828.202 38.0177 825.898 40.9422 825.898 46.1163ZM844.335 46.1163C844.335 54.8897 839.726 60.0637 831.974 60.0637C824.222 60.0637 819.613 54.8896 819.613 46.3412C819.613 37.5678 824.222 32.3938 831.974 32.3938C839.726 32.1688 844.335 37.3429 844.335 46.1163Z" fill="#010001"/>
<path d="M861.515 58.4894V52.1905C863.82 53.5403 866.543 54.4401 869.895 54.4401C873.248 54.4401 874.505 53.5403 874.505 51.9656C874.505 50.3909 873.457 49.716 868.848 48.5912C863.61 47.2414 861.515 44.9919 861.515 40.4927C861.515 35.0937 865.286 32.1692 871.572 32.1692C874.924 32.1692 877.228 32.6191 879.533 33.519V39.1429C877.019 38.2431 874.505 37.7932 872.2 37.7932C869.057 37.7932 867.591 38.2431 867.591 39.8178C867.591 41.1675 868.429 41.6175 872.41 42.5173C878.486 44.092 881 46.1166 881 51.0658C881 56.6897 877.228 59.8391 870.105 59.8391C866.543 60.0641 863.61 59.3893 861.515 58.4894Z" fill="#010001"/>
<path d="M645.717 96.9574C645.717 94.2579 644.251 92.6832 641.317 92.6832H637.756V101.007H641.317C644.251 101.232 645.717 99.6569 645.717 96.9574ZM652.212 96.9574C652.212 103.706 648.441 106.856 641.946 106.856H637.965V113.155H631.68V86.8342H642.156C648.441 87.0592 652.212 90.2086 652.212 96.9574Z" fill="#010001"/>
<path d="M679.449 99.432C681.963 99.432 683.43 98.3072 683.43 96.0576C683.43 93.808 682.172 92.6832 679.449 92.6832H676.097V99.432H679.449ZM690.972 113.379H683.849L680.915 107.081C680.287 105.956 679.658 105.056 677.982 105.056H676.097V113.379H669.811V87.0592H679.658C685.944 87.0592 689.715 89.9837 689.715 96.0576C689.715 99.6569 688.039 102.131 685.525 103.706C686.363 104.156 686.782 105.056 687.201 105.956L690.972 113.379Z" fill="#010001"/>
<path d="M714.856 87.059H708.571V113.379H714.856V87.059Z" fill="#010001"/>
<path d="M760.111 87.059V113.379H754.245V97.1821C753.826 97.857 753.616 98.7568 753.197 99.4317L749.217 106.63H745.445L741.255 99.4317L740.417 97.6321V113.379H734.551V87.059H740.417L747.54 99.2067L754.664 87.059H760.111Z" fill="#010001"/>
<path d="M796.985 107.98V113.379H779.596V87.059H796.776V92.458H786.091V97.4071H795.938V102.806H786.091V107.98H796.985Z" fill="#010001"/>
<path d="M106.432 83.9098L0 137V109.105L106.432 55.7899V83.9098Z" fill="#D02785"/>
<path d="M106.432 27.8949L0 80.9852V53.0902L106.432 0V27.8949Z" fill="#D02785"/>
<path d="M106.433 27.895V55.7899L156.716 80.9853V53.0903L106.433 27.895Z" fill="#831C52"/>
<path d="M106.433 83.9097V111.805L156.716 137V109.105L106.433 83.9097Z" fill="#831C52"/>
<path d="M293.108 7.87354V79.8604C293.108 109.78 278.652 130.701 247.434 130.701C216.426 130.701 203.856 111.13 201.97 81.66L229.416 78.7356C230.464 94.0328 234.444 103.706 247.644 103.706C261.053 103.706 265.243 93.8078 265.243 78.0606V7.87354H293.108Z" fill="#010001"/>
<path d="M323.068 7.87354H350.933V56.4646H370.418L398.493 7.87354H427.196V12.3727L391.16 70.1871C398.702 79.8603 408.13 104.831 421.958 104.831C425.52 104.831 430.338 104.156 433.691 102.581L436.414 125.977C431.805 128.451 423.634 130.701 416.092 130.701C388.436 130.701 376.913 94.4826 367.275 82.3349H350.933V128.901H323.068V7.87354Z" fill="#010001"/>
<path d="M555.627 54.8899L521.686 98.7569H516.867L483.136 54.8899V128.901H455.271V7.87354H479.155L519.382 58.4893L559.398 7.87354H583.492V128.901H555.627V54.8899Z" fill="#010001"/>
</svg>
